[img]http://img576.imageshack.us/img576/883/chrisbrownyeah3.png[/img]

[img]http://img179.imageshack.us/img179/8636/chrisbrownyeah32.png[/img]

[code]General
Complete name                    : Chris Brown - Yeah 3x [KingPinMKVideos].mkv
Format                           : Matroska
File size                        : 95.8 MiB
Duration                         : 4mn 21s
Overall bit rate                 : 3 072 Kbps
Encoded date                     : UTC 2010-10-21 21:59:58
Writing application              : mkvmerge v4.0.0 ('The Stars were mine') built on Jun  6 2010 16:18:42
Writing library                  : libebml v1.0.0 + libmatroska v1.0.0

Video
ID                               : 1
Format                           : AVC
Format/Info                      : Advanced Video Codec
Format profile                   : Main@L4.1
Format settings, CABAC           : Yes
Format settings, ReFrames        : 4 frames
Muxing mode                      : Container profile=Unknown@4.1
Codec ID                         : V_MPEG4/ISO/AVC
Duration                         : 4mn 21s
Bit rate                         : 2 787 Kbps
Nominal bit rate                 : 2 838 Kbps
Width                            : 576 pixels
Height                           : 324 pixels
Display aspect ratio             : 16:9
Frame rate                       : 23.976 fps
Resolution                       : 8 bits
Colorimetry                      : 4:2:0
Scan type                        : Progressive
Bits/(Pixel*Frame)               : 0.623
Stream size                      : 86.8 MiB (91%)
Writing library                  : x264 core 98 r1649 20cbe10

Audio
ID                               : 2
Format                           : MPEG Audio
Format version                   : Version 1
Format profile                   : Layer 2
Codec ID                         : A_MPEG/L2
Codec ID/Hint                    : MP2
Duration                         : 4mn 21s
Bit rate mode                    : Constant
Bit rate                         : 224 Kbps
Channel(s)                       : 2 channels
Sampling rate                    : 44.1 KHz
Video delay                      : 85ms
Stream size                      : 6.98 MiB (7%)[/code]